<svg id="wave" style="transform:rotate(0deg); transition: 0.3s" viewBox="0 0 1440 190" version="1.1" xmlns="http://www.w3.org/2000/svg"><defs><linearGradient id="sw-gradient-0" x1="0" x2="0" y1="1" y2="0"><stop stop-color="rgba(243, 106, 62, 1)" offset="0%"></stop><stop stop-color="rgba(255, 179, 11, 1)" offset="100%"></stop></linearGradient></defs><path style="transform:translate(0, 0px); opacity:1" fill="url(#sw-gradient-0)" d="M0,0L30,3.2C60,6,120,13,180,22.2C240,32,300,44,360,69.7C420,95,480,133,540,133C600,133,660,95,720,91.8C780,89,840,120,900,120.3C960,120,1020,89,1080,69.7C1140,51,1200,44,1260,44.3C1320,44,1380,51,1440,44.3C1500,38,1560,19,1620,31.7C1680,44,1740,89,1800,91.8C1860,95,1920,57,1980,34.8C2040,13,2100,6,2160,6.3C2220,6,2280,13,2340,25.3C2400,38,2460,57,2520,79.2C2580,101,2640,127,2700,126.7C2760,127,2820,101,2880,95C2940,89,3000,101,3060,107.7C3120,114,3180,114,3240,114C3300,114,3360,114,3420,120.3C3480,127,3540,139,3600,145.7C3660,152,3720,152,3780,142.5C3840,133,3900,114,3960,95C4020,76,4080,57,4140,69.7C4200,82,4260,127,4290,148.8L4320,171L4320,190L4290,190C4260,190,4200,190,4140,190C4080,190,4020,190,3960,190C3900,190,3840,190,3780,190C3720,190,3660,190,3600,190C3540,190,3480,190,3420,190C3360,190,3300,190,3240,190C3180,190,3120,190,3060,190C3000,190,2940,190,2880,190C2820,190,2760,190,2700,190C2640,190,2580,190,2520,190C2460,190,2400,190,2340,190C2280,190,2220,190,2160,190C2100,190,2040,190,1980,190C1920,190,1860,190,1800,190C1740,190,1680,190,1620,190C1560,190,1500,190,1440,190C1380,190,1320,190,1260,190C1200,190,1140,190,1080,190C1020,190,960,190,900,190C840,190,780,190,720,190C660,190,600,190,540,190C480,190,420,190,360,190C300,190,240,190,180,190C120,190,60,190,30,190L0,190Z"></path><defs><linearGradient id="sw-gradient-1" x1="0" x2="0" y1="1" y2="0"><stop stop-color="rgba(243, 106, 62, 1)" offset="0%"></stop><stop stop-color="rgba(255, 179, 11, 1)" offset="100%"></stop></linearGradient></defs><path style="transform:translate(0, 50px); opacity:0.9" fill="url(#sw-gradient-1)" d="M0,133L30,120.3C60,108,120,82,180,63.3C240,44,300,32,360,50.7C420,70,480,120,540,120.3C600,120,660,70,720,41.2C780,13,840,6,900,28.5C960,51,1020,101,1080,117.2C1140,133,1200,114,1260,88.7C1320,63,1380,32,1440,15.8C1500,0,1560,0,1620,6.3C1680,13,1740,25,1800,44.3C1860,63,1920,89,1980,88.7C2040,89,2100,63,2160,47.5C2220,32,2280,25,2340,31.7C2400,38,2460,57,2520,72.8C2580,89,2640,101,2700,98.2C2760,95,2820,76,2880,72.8C2940,70,3000,82,3060,72.8C3120,63,3180,32,3240,22.2C3300,13,3360,25,3420,41.2C3480,57,3540,76,3600,95C3660,114,3720,133,3780,136.2C3840,139,3900,127,3960,123.5C4020,120,4080,127,4140,107.7C4200,89,4260,44,4290,22.2L4320,0L4320,190L4290,190C4260,190,4200,190,4140,190C4080,190,4020,190,3960,190C3900,190,3840,190,3780,190C3720,190,3660,190,3600,190C3540,190,3480,190,3420,190C3360,190,3300,190,3240,190C3180,190,3120,190,3060,190C3000,190,2940,190,2880,190C2820,190,2760,190,2700,190C2640,190,2580,190,2520,190C2460,190,2400,190,2340,190C2280,190,2220,190,2160,190C2100,190,2040,190,1980,190C1920,190,1860,190,1800,190C1740,190,1680,190,1620,190C1560,190,1500,190,1440,190C1380,190,1320,190,1260,190C1200,190,1140,190,1080,190C1020,190,960,190,900,190C840,190,780,190,720,190C660,190,600,190,540,190C480,190,420,190,360,190C300,190,240,190,180,190C120,190,60,190,30,190L0,190Z"></path><defs><linearGradient id="sw-gradient-2" x1="0" x2="0" y1="1" y2="0"><stop stop-color="rgba(243, 106, 62, 1)" offset="0%"></stop><stop stop-color="rgba(255, 179, 11, 1)" offset="100%"></stop></linearGradient></defs><path style="transform:translate(0, 100px); opacity:0.8" fill="url(#sw-gradient-2)" d="M0,133L30,117.2C60,101,120,70,180,76C240,82,300,127,360,123.5C420,120,480,70,540,53.8C600,38,660,57,720,82.3C780,108,840,139,900,152C960,165,1020,158,1080,139.3C1140,120,1200,89,1260,66.5C1320,44,1380,32,1440,47.5C1500,63,1560,108,1620,133C1680,158,1740,165,1800,139.3C1860,114,1920,57,1980,47.5C2040,38,2100,76,2160,79.2C2220,82,2280,51,2340,47.5C2400,44,2460,70,2520,66.5C2580,63,2640,32,2700,38C2760,44,2820,89,2880,104.5C2940,120,3000,108,3060,104.5C3120,101,3180,108,3240,110.8C3300,114,3360,114,3420,98.2C3480,82,3540,51,3600,44.3C3660,38,3720,57,3780,57C3840,57,3900,38,3960,38C4020,38,4080,57,4140,57C4200,57,4260,38,4290,28.5L4320,19L4320,190L4290,190C4260,190,4200,190,4140,190C4080,190,4020,190,3960,190C3900,190,3840,190,3780,190C3720,190,3660,190,3600,190C3540,190,3480,190,3420,190C3360,190,3300,190,3240,190C3180,190,3120,190,3060,190C3000,190,2940,190,2880,190C2820,190,2760,190,2700,190C2640,190,2580,190,2520,190C2460,190,2400,190,2340,190C2280,190,2220,190,2160,190C2100,190,2040,190,1980,190C1920,190,1860,190,1800,190C1740,190,1680,190,1620,190C1560,190,1500,190,1440,190C1380,190,1320,190,1260,190C1200,190,1140,190,1080,190C1020,190,960,190,900,190C840,190,780,190,720,190C660,190,600,190,540,190C480,190,420,190,360,190C300,190,240,190,180,190C120,190,60,190,30,190L0,190Z"></path><defs><linearGradient id="sw-gradient-3" x1="0" x2="0" y1="1" y2="0"><stop stop-color="rgba(243, 106, 62, 1)" offset="0%"></stop><stop stop-color="rgba(255, 179, 11, 1)" offset="100%"></stop></linearGradient></defs><path style="transform:translate(0, 150px); opacity:0.7" fill="url(#sw-gradient-3)" d="M0,133L30,114C60,95,120,57,180,41.2C240,25,300,32,360,50.7C420,70,480,101,540,117.2C600,133,660,133,720,114C780,95,840,57,900,57C960,57,1020,95,1080,104.5C1140,114,1200,95,1260,95C1320,95,1380,114,1440,123.5C1500,133,1560,133,1620,133C1680,133,1740,133,1800,114C1860,95,1920,57,1980,41.2C2040,25,2100,32,2160,31.7C2220,32,2280,25,2340,28.5C2400,32,2460,44,2520,57C2580,70,2640,82,2700,82.3C2760,82,2820,70,2880,63.3C2940,57,3000,57,3060,66.5C3120,76,3180,95,3240,101.3C3300,108,3360,101,3420,88.7C3480,76,3540,57,3600,66.5C3660,76,3720,114,3780,136.2C3840,158,3900,165,3960,167.8C4020,171,4080,171,4140,158.3C4200,146,4260,120,4290,107.7L4320,95L4320,190L4290,190C4260,190,4200,190,4140,190C4080,190,4020,190,3960,190C3900,190,3840,190,3780,190C3720,190,3660,190,3600,190C3540,190,3480,190,3420,190C3360,190,3300,190,3240,190C3180,190,3120,190,3060,190C3000,190,2940,190,2880,190C2820,190,2760,190,2700,190C2640,190,2580,190,2520,190C2460,190,2400,190,2340,190C2280,190,2220,190,2160,190C2100,190,2040,190,1980,190C1920,190,1860,190,1800,190C1740,190,1680,190,1620,190C1560,190,1500,190,1440,190C1380,190,1320,190,1260,190C1200,190,1140,190,1080,190C1020,190,960,190,900,190C840,190,780,190,720,190C660,190,600,190,540,190C480,190,420,190,360,190C300,190,240,190,180,190C120,190,60,190,30,190L0,190Z"></path></svg>