<?xml version="1.0" standalone="no"?>
<svg xmlns:xlink="http://www.w3.org/1999/xlink" id="wave" style="transform:rotate(0deg); transition: 0.3s" viewBox="0 0 1440 140" version="1.1" xmlns="http://www.w3.org/2000/svg"><defs><linearGradient id="sw-gradient-0" x1="0" x2="0" y1="1" y2="0"><stop stop-color="rgba(243, 106, 62, 1)" offset="0%"/><stop stop-color="rgba(255, 179, 11, 1)" offset="100%"/></linearGradient></defs><path style="transform:translate(0, 0px); opacity:1" fill="url(#sw-gradient-0)" d="M0,0L30,2.3C60,5,120,9,180,16.3C240,23,300,33,360,51.3C420,70,480,98,540,98C600,98,660,70,720,67.7C780,65,840,89,900,88.7C960,89,1020,65,1080,51.3C1140,37,1200,33,1260,32.7C1320,33,1380,37,1440,32.7C1500,28,1560,14,1620,23.3C1680,33,1740,65,1800,67.7C1860,70,1920,42,1980,25.7C2040,9,2100,5,2160,4.7C2220,5,2280,9,2340,18.7C2400,28,2460,42,2520,58.3C2580,75,2640,93,2700,93.3C2760,93,2820,75,2880,70C2940,65,3000,75,3060,79.3C3120,84,3180,84,3240,84C3300,84,3360,84,3420,88.7C3480,93,3540,103,3600,107.3C3660,112,3720,112,3780,105C3840,98,3900,84,3960,70C4020,56,4080,42,4140,51.3C4200,61,4260,93,4290,109.7L4320,126L4320,140L4290,140C4260,140,4200,140,4140,140C4080,140,4020,140,3960,140C3900,140,3840,140,3780,140C3720,140,3660,140,3600,140C3540,140,3480,140,3420,140C3360,140,3300,140,3240,140C3180,140,3120,140,3060,140C3000,140,2940,140,2880,140C2820,140,2760,140,2700,140C2640,140,2580,140,2520,140C2460,140,2400,140,2340,140C2280,140,2220,140,2160,140C2100,140,2040,140,1980,140C1920,140,1860,140,1800,140C1740,140,1680,140,1620,140C1560,140,1500,140,1440,140C1380,140,1320,140,1260,140C1200,140,1140,140,1080,140C1020,140,960,140,900,140C840,140,780,140,720,140C660,140,600,140,540,140C480,140,420,140,360,140C300,140,240,140,180,140C120,140,60,140,30,140L0,140Z"/><defs><linearGradient id="sw-gradient-1" x1="0" x2="0" y1="1" y2="0"><stop stop-color="rgba(243, 106, 62, 1)" offset="0%"/><stop stop-color="rgba(255, 179, 11, 1)" offset="100%"/></linearGradient></defs><path style="transform:translate(0, 50px); opacity:0.9" fill="url(#sw-gradient-1)" d="M0,98L30,88.7C60,79,120,61,180,46.7C240,33,300,23,360,37.3C420,51,480,89,540,88.7C600,89,660,51,720,30.3C780,9,840,5,900,21C960,37,1020,75,1080,86.3C1140,98,1200,84,1260,65.3C1320,47,1380,23,1440,11.7C1500,0,1560,0,1620,4.7C1680,9,1740,19,1800,32.7C1860,47,1920,65,1980,65.3C2040,65,2100,47,2160,35C2220,23,2280,19,2340,23.3C2400,28,2460,42,2520,53.7C2580,65,2640,75,2700,72.3C2760,70,2820,56,2880,53.7C2940,51,3000,61,3060,53.7C3120,47,3180,23,3240,16.3C3300,9,3360,19,3420,30.3C3480,42,3540,56,3600,70C3660,84,3720,98,3780,100.3C3840,103,3900,93,3960,91C4020,89,4080,93,4140,79.3C4200,65,4260,33,4290,16.3L4320,0L4320,140L4290,140C4260,140,4200,140,4140,140C4080,140,4020,140,3960,140C3900,140,3840,140,3780,140C3720,140,3660,140,3600,140C3540,140,3480,140,3420,140C3360,140,3300,140,3240,140C3180,140,3120,140,3060,140C3000,140,2940,140,2880,140C2820,140,2760,140,2700,140C2640,140,2580,140,2520,140C2460,140,2400,140,2340,140C2280,140,2220,140,2160,140C2100,140,2040,140,1980,140C1920,140,1860,140,1800,140C1740,140,1680,140,1620,140C1560,140,1500,140,1440,140C1380,140,1320,140,1260,140C1200,140,1140,140,1080,140C1020,140,960,140,900,140C840,140,780,140,720,140C660,140,600,140,540,140C480,140,420,140,360,140C300,140,240,140,180,140C120,140,60,140,30,140L0,140Z"/><defs><linearGradient id="sw-gradient-2" x1="0" x2="0" y1="1" y2="0"><stop stop-color="rgba(243, 106, 62, 1)" offset="0%"/><stop stop-color="rgba(255, 179, 11, 1)" offset="100%"/></linearGradient></defs><path style="transform:translate(0, 100px); opacity:0.8" fill="url(#sw-gradient-2)" d="M0,98L30,86.3C60,75,120,51,180,56C240,61,300,93,360,91C420,89,480,51,540,39.7C600,28,660,42,720,60.7C780,79,840,103,900,112C960,121,1020,117,1080,102.7C1140,89,1200,65,1260,49C1320,33,1380,23,1440,35C1500,47,1560,79,1620,98C1680,117,1740,121,1800,102.7C1860,84,1920,42,1980,35C2040,28,2100,56,2160,58.3C2220,61,2280,37,2340,35C2400,33,2460,51,2520,49C2580,47,2640,23,2700,28C2760,33,2820,65,2880,77C2940,89,3000,79,3060,77C3120,75,3180,79,3240,81.7C3300,84,3360,84,3420,72.3C3480,61,3540,37,3600,32.7C3660,28,3720,42,3780,42C3840,42,3900,28,3960,28C4020,28,4080,42,4140,42C4200,42,4260,28,4290,21L4320,14L4320,140L4290,140C4260,140,4200,140,4140,140C4080,140,4020,140,3960,140C3900,140,3840,140,3780,140C3720,140,3660,140,3600,140C3540,140,3480,140,3420,140C3360,140,3300,140,3240,140C3180,140,3120,140,3060,140C3000,140,2940,140,2880,140C2820,140,2760,140,2700,140C2640,140,2580,140,2520,140C2460,140,2400,140,2340,140C2280,140,2220,140,2160,140C2100,140,2040,140,1980,140C1920,140,1860,140,1800,140C1740,140,1680,140,1620,140C1560,140,1500,140,1440,140C1380,140,1320,140,1260,140C1200,140,1140,140,1080,140C1020,140,960,140,900,140C840,140,780,140,720,140C660,140,600,140,540,140C480,140,420,140,360,140C300,140,240,140,180,140C120,140,60,140,30,140L0,140Z"/><defs><linearGradient id="sw-gradient-3" x1="0" x2="0" y1="1" y2="0"><stop stop-color="rgba(243, 106, 62, 1)" offset="0%"/><stop stop-color="rgba(255, 179, 11, 1)" offset="100%"/></linearGradient></defs><path style="transform:translate(0, 150px); opacity:0.7" fill="url(#sw-gradient-3)" d="M0,98L30,84C60,70,120,42,180,30.3C240,19,300,23,360,37.3C420,51,480,75,540,86.3C600,98,660,98,720,84C780,70,840,42,900,42C960,42,1020,70,1080,77C1140,84,1200,70,1260,70C1320,70,1380,84,1440,91C1500,98,1560,98,1620,98C1680,98,1740,98,1800,84C1860,70,1920,42,1980,30.3C2040,19,2100,23,2160,23.3C2220,23,2280,19,2340,21C2400,23,2460,33,2520,42C2580,51,2640,61,2700,60.7C2760,61,2820,51,2880,46.7C2940,42,3000,42,3060,49C3120,56,3180,70,3240,74.7C3300,79,3360,75,3420,65.3C3480,56,3540,42,3600,49C3660,56,3720,84,3780,100.3C3840,117,3900,121,3960,123.7C4020,126,4080,126,4140,116.7C4200,107,4260,89,4290,79.3L4320,70L4320,140L4290,140C4260,140,4200,140,4140,140C4080,140,4020,140,3960,140C3900,140,3840,140,3780,140C3720,140,3660,140,3600,140C3540,140,3480,140,3420,140C3360,140,3300,140,3240,140C3180,140,3120,140,3060,140C3000,140,2940,140,2880,140C2820,140,2760,140,2700,140C2640,140,2580,140,2520,140C2460,140,2400,140,2340,140C2280,140,2220,140,2160,140C2100,140,2040,140,1980,140C1920,140,1860,140,1800,140C1740,140,1680,140,1620,140C1560,140,1500,140,1440,140C1380,140,1320,140,1260,140C1200,140,1140,140,1080,140C1020,140,960,140,900,140C840,140,780,140,720,140C660,140,600,140,540,140C480,140,420,140,360,140C300,140,240,140,180,140C120,140,60,140,30,140L0,140Z"/></svg>