<svg id="wave" style="transform:rotate(0deg); transition: 0.3s" viewBox="0 0 1440 310" version="1.1" xmlns="http://www.w3.org/2000/svg"><defs><linearGradient id="sw-gradient-0" x1="0" x2="0" y1="1" y2="0"><stop stop-color="rgba(243, 106, 62, 1)" offset="0%"></stop><stop stop-color="rgba(255, 179, 11, 1)" offset="100%"></stop></linearGradient></defs><path style="transform:translate(0, 0px); opacity:1" fill="url(#sw-gradient-0)" d="M0,0L80,5.2C160,10,320,21,480,36.2C640,52,800,72,960,113.7C1120,155,1280,217,1440,217C1600,217,1760,155,1920,149.8C2080,145,2240,196,2400,196.3C2560,196,2720,145,2880,113.7C3040,83,3200,72,3360,72.3C3520,72,3680,83,3840,72.3C4000,62,4160,31,4320,51.7C4480,72,4640,145,4800,149.8C4960,155,5120,93,5280,56.8C5440,21,5600,10,5760,10.3C5920,10,6080,21,6240,41.3C6400,62,6560,93,6720,129.2C6880,165,7040,207,7200,206.7C7360,207,7520,165,7680,155C7840,145,8000,165,8160,175.7C8320,186,8480,186,8640,186C8800,186,8960,186,9120,196.3C9280,207,9440,227,9600,237.7C9760,248,9920,248,10080,232.5C10240,217,10400,186,10560,155C10720,124,10880,93,11040,113.7C11200,134,11360,207,11440,242.8L11520,279L11520,310L11440,310C11360,310,11200,310,11040,310C10880,310,10720,310,10560,310C10400,310,10240,310,10080,310C9920,310,9760,310,9600,310C9440,310,9280,310,9120,310C8960,310,8800,310,8640,310C8480,310,8320,310,8160,310C8000,310,7840,310,7680,310C7520,310,7360,310,7200,310C7040,310,6880,310,6720,310C6560,310,6400,310,6240,310C6080,310,5920,310,5760,310C5600,310,5440,310,5280,310C5120,310,4960,310,4800,310C4640,310,4480,310,4320,310C4160,310,4000,310,3840,310C3680,310,3520,310,3360,310C3200,310,3040,310,2880,310C2720,310,2560,310,2400,310C2240,310,2080,310,1920,310C1760,310,1600,310,1440,310C1280,310,1120,310,960,310C800,310,640,310,480,310C320,310,160,310,80,310L0,310Z"></path><defs><linearGradient id="sw-gradient-1" x1="0" x2="0" y1="1" y2="0"><stop stop-color="rgba(243, 106, 62, 1)" offset="0%"></stop><stop stop-color="rgba(255, 179, 11, 1)" offset="100%"></stop></linearGradient></defs><path style="transform:translate(0, 50px); opacity:0.9" fill="url(#sw-gradient-1)" d="M0,217L80,196.3C160,176,320,134,480,103.3C640,72,800,52,960,82.7C1120,114,1280,196,1440,196.3C1600,196,1760,114,1920,67.2C2080,21,2240,10,2400,46.5C2560,83,2720,165,2880,191.2C3040,217,3200,186,3360,144.7C3520,103,3680,52,3840,25.8C4000,0,4160,0,4320,10.3C4480,21,4640,41,4800,72.3C4960,103,5120,145,5280,144.7C5440,145,5600,103,5760,77.5C5920,52,6080,41,6240,51.7C6400,62,6560,93,6720,118.8C6880,145,7040,165,7200,160.2C7360,155,7520,124,7680,118.8C7840,114,8000,134,8160,118.8C8320,103,8480,52,8640,36.2C8800,21,8960,41,9120,67.2C9280,93,9440,124,9600,155C9760,186,9920,217,10080,222.2C10240,227,10400,207,10560,201.5C10720,196,10880,207,11040,175.7C11200,145,11360,72,11440,36.2L11520,0L11520,310L11440,310C11360,310,11200,310,11040,310C10880,310,10720,310,10560,310C10400,310,10240,310,10080,310C9920,310,9760,310,9600,310C9440,310,9280,310,9120,310C8960,310,8800,310,8640,310C8480,310,8320,310,8160,310C8000,310,7840,310,7680,310C7520,310,7360,310,7200,310C7040,310,6880,310,6720,310C6560,310,6400,310,6240,310C6080,310,5920,310,5760,310C5600,310,5440,310,5280,310C5120,310,4960,310,4800,310C4640,310,4480,310,4320,310C4160,310,4000,310,3840,310C3680,310,3520,310,3360,310C3200,310,3040,310,2880,310C2720,310,2560,310,2400,310C2240,310,2080,310,1920,310C1760,310,1600,310,1440,310C1280,310,1120,310,960,310C800,310,640,310,480,310C320,310,160,310,80,310L0,310Z"></path><defs><linearGradient id="sw-gradient-2" x1="0" x2="0" y1="1" y2="0"><stop stop-color="rgba(243, 106, 62, 1)" offset="0%"></stop><stop stop-color="rgba(255, 179, 11, 1)" offset="100%"></stop></linearGradient></defs><path style="transform:translate(0, 100px); opacity:0.8" fill="url(#sw-gradient-2)" d="M0,217L80,191.2C160,165,320,114,480,124C640,134,800,207,960,201.5C1120,196,1280,114,1440,87.8C1600,62,1760,93,1920,134.3C2080,176,2240,227,2400,248C2560,269,2720,258,2880,227.3C3040,196,3200,145,3360,108.5C3520,72,3680,52,3840,77.5C4000,103,4160,176,4320,217C4480,258,4640,269,4800,227.3C4960,186,5120,93,5280,77.5C5440,62,5600,124,5760,129.2C5920,134,6080,83,6240,77.5C6400,72,6560,114,6720,108.5C6880,103,7040,52,7200,62C7360,72,7520,145,7680,170.5C7840,196,8000,176,8160,170.5C8320,165,8480,176,8640,180.8C8800,186,8960,186,9120,160.2C9280,134,9440,83,9600,72.3C9760,62,9920,93,10080,93C10240,93,10400,62,10560,62C10720,62,10880,93,11040,93C11200,93,11360,62,11440,46.5L11520,31L11520,310L11440,310C11360,310,11200,310,11040,310C10880,310,10720,310,10560,310C10400,310,10240,310,10080,310C9920,310,9760,310,9600,310C9440,310,9280,310,9120,310C8960,310,8800,310,8640,310C8480,310,8320,310,8160,310C8000,310,7840,310,7680,310C7520,310,7360,310,7200,310C7040,310,6880,310,6720,310C6560,310,6400,310,6240,310C6080,310,5920,310,5760,310C5600,310,5440,310,5280,310C5120,310,4960,310,4800,310C4640,310,4480,310,4320,310C4160,310,4000,310,3840,310C3680,310,3520,310,3360,310C3200,310,3040,310,2880,310C2720,310,2560,310,2400,310C2240,310,2080,310,1920,310C1760,310,1600,310,1440,310C1280,310,1120,310,960,310C800,310,640,310,480,310C320,310,160,310,80,310L0,310Z"></path><defs><linearGradient id="sw-gradient-3" x1="0" x2="0" y1="1" y2="0"><stop stop-color="rgba(243, 106, 62, 1)" offset="0%"></stop><stop stop-color="rgba(255, 179, 11, 1)" offset="100%"></stop></linearGradient></defs><path style="transform:translate(0, 150px); opacity:0.7" fill="url(#sw-gradient-3)" d="M0,217L80,186C160,155,320,93,480,67.2C640,41,800,52,960,82.7C1120,114,1280,165,1440,191.2C1600,217,1760,217,1920,186C2080,155,2240,93,2400,93C2560,93,2720,155,2880,170.5C3040,186,3200,155,3360,155C3520,155,3680,186,3840,201.5C4000,217,4160,217,4320,217C4480,217,4640,217,4800,186C4960,155,5120,93,5280,67.2C5440,41,5600,52,5760,51.7C5920,52,6080,41,6240,46.5C6400,52,6560,72,6720,93C6880,114,7040,134,7200,134.3C7360,134,7520,114,7680,103.3C7840,93,8000,93,8160,108.5C8320,124,8480,155,8640,165.3C8800,176,8960,165,9120,144.7C9280,124,9440,93,9600,108.5C9760,124,9920,186,10080,222.2C10240,258,10400,269,10560,273.8C10720,279,10880,279,11040,258.3C11200,238,11360,196,11440,175.7L11520,155L11520,310L11440,310C11360,310,11200,310,11040,310C10880,310,10720,310,10560,310C10400,310,10240,310,10080,310C9920,310,9760,310,9600,310C9440,310,9280,310,9120,310C8960,310,8800,310,8640,310C8480,310,8320,310,8160,310C8000,310,7840,310,7680,310C7520,310,7360,310,7200,310C7040,310,6880,310,6720,310C6560,310,6400,310,6240,310C6080,310,5920,310,5760,310C5600,310,5440,310,5280,310C5120,310,4960,310,4800,310C4640,310,4480,310,4320,310C4160,310,4000,310,3840,310C3680,310,3520,310,3360,310C3200,310,3040,310,2880,310C2720,310,2560,310,2400,310C2240,310,2080,310,1920,310C1760,310,1600,310,1440,310C1280,310,1120,310,960,310C800,310,640,310,480,310C320,310,160,310,80,310L0,310Z"></path></svg>